<svg fill="none" viewBox="0 0 48 48" xmlns="http://www.w3.org/2000/svg" xmlns:xlink="http://www.w3.org/1999/xlink">
  <linearGradient id="shadow" gradientUnits="userSpaceOnUse" x1="24.6" x2="24.6" y1="15" y2="33">
    <stop offset="0" stop-color="#336042" stop-opacity=".7"/>
    <stop offset="1" stop-color="#336042"/>
  </linearGradient>
  <path d="m4 8c0-2.20914 1.79086-4 4-4h32c2.2091 0 4 1.79086 4 4v32c0 2.2091-1.7909 4-4 4h-32c-2.20914 0-4-1.7909-4-4z" fill="#46a66b"/>
  <path d="m43.9998 8c0-1.10457-.4477-2.10457-1.1716-2.82843l-37.65681 37.65683c.72385.7239 1.72386 1.1716 2.82842 1.1716h31.99999c2.2092 0 4-1.7909 4-4z" fill="#62be81"/>
  <path d="m31.5 28.3091c1.6-1.6.6666-5.8091 0-7.3091l-6.019-5.9975-4.0554 1.1112-2.6617 5.8763-1.9914 4.3658 7.14 6.4468c.856-2.2213.1672-3.9213-.2842-4.4935z" fill="url(#shadow)"/>
  <path d="m15.5567 28.2022c-.1551.5489-.7322 1.5281-1.0778 1.9818l-7.4789 9.816.5.5 32.5-32.5h-2.5c-1.6228 0-2.6611.02633-3.9593 1-9.5407 1.5-6.1445 3.5849-11.1445 10.0849-.5-1.5-.3733-3.0849-1.3962-3.0849s-1.9747.7375-2.2357 2.5514c-.3212 2.2335.2357 5.4486.2357 5.4486-1 0-1.2743 1.5-1.2743 2-1.0757-2-3.3094-2.963-2.5757-.622.2917.9308.7208 1.7121.4067 2.8242z" fill="#6dcb8e"/>
  <g fill="#fff" opacity=".25">
    <path d="m14.4789 30.184c.3456-.4537.9227-1.4329 1.0778-1.9818.0269-.0951.0483-.1879.0649-.2785.0679.3909.0689.8047-.0649 1.2785-.1551.5489-.7322 1.5281-1.0778 1.9818l-7.04647 9.2484-.43243-.4324z"/>
    <path d="m39 9 1-1h-2.5c-1.6228 0-2.6611.02633-3.9593 1-6.4147 1.0085-6.9812 2.2814-8.1835 4.9829-.5859 1.3165-1.3227 2.9723-2.961 5.102-.1522-.4568-.2464-.9214-.3326-1.3467-.1968-.9715-.3522-1.7382-1.0636-1.7382-1.0229 0-1.9747.7375-2.2357 2.5514-.0943.6559-.1129 1.3966-.0921 2.1155.0126-.3853.0414-.7626.0921-1.1155.261-1.8139 1.2128-2.5514 2.2357-2.5514.7114 0 .8668.7667 1.0636 1.7382.0862.4253.1804.8899.3326 1.3467 1.6383-2.1297 2.3751-3.7855 2.961-5.102 1.2023-2.7015 1.7688-3.9744 8.1835-4.9829 1.2982-.97367 2.3365-1 3.9593-1z"/>
    <path d="m18.8584 24.0105c-.8846.1339-1.1327 1.514-1.1327 1.9895-1.0469-1.9464-3.1906-2.9107-2.6284-.8031.3782-.6043 1.8257.3107 2.6284 1.8031 0-.5.2743-2 1.2743-2 0 0-.0673-.3886-.1416-.9895z"/>
  </g>
  <path d="m19.7978 32.4433c-.5489.1551-1.5281.7322-1.9818 1.0778l-9.816 7.4789-.5-.5 32.5-32.5v2.5c0 1.6228-.0263 2.6611-1 3.9593-1.5 9.5407-3.5849 6.1445-10.0849 11.1445 1.5.5 3.0849.3733 3.0849 1.3962s-.7375 1.9747-2.5514 2.2357c-2.2334.3212-5.4486-.2357-5.4486-.2357 0 1-1.5 1.2743-2 1.2743 2 1.0757 2.963 3.3094.622 2.5757-.9308-.2917-1.7121-.7208-2.8242-.4067z" fill="#4aa168"/>
  <path d="m7.875 40.875-.75-.75 30.875-30.125z" fill="#30814d"/>
</svg>
