<?xml version="1.0" encoding="UTF-8" standalone="no"?>
<svg
   version="1.1"
   viewBox="0 0 22 22"
   id="svg1"
   xml:space="preserve"
   xmlns="http://www.w3.org/2000/svg"
   xmlns:svg="http://www.w3.org/2000/svg"><defs
     id="defs1"><style
       id="current-color-scheme"
       type="text/css">
        .ColorScheme-Text {
          color:#232629;
        }
      </style></defs><path
     id="smartphone"
     style="fill:currentColor"
     class="ColorScheme-Text"
     d="m 18.464844,0.51953125 c -0.219657,0.007692 -0.451192,0.0318649 -0.710938,0.0703125 -0.593956,0.0879175 -1.055718,0.44667215 -1.396484,0.85546875 -0.340766,0.4087966 -0.581055,0.8803289 -0.765625,1.3066406 -0.04012,0.092677 -0.08893,0.1756462 -0.146485,0.2519531 -0.06433,0.085289 -0.261353,0.2558094 -0.466796,0.3671876 C 14.773073,3.4824717 14.54778,3.5292961 14.503906,3.5253906 14.379127,3.5142833 14.048966,3.3569048 13.351562,3.265625 12.844676,3.199281 12.36251,3.3995864 12.054688,3.7382812 11.746863,4.0769759 11.593603,4.5469074 11.642578,5.0332031 l 0.01953,0.1933594 c 0.0392,0.3892451 -0.253321,0.7107413 -0.644531,0.7089844 l -0.833984,-0.00391 C 9.5632188,5.928858 8.9928056,6.1223449 8.7597656,6.6308594 c -0.233041,0.5085145 -0.021528,1.0584169 0.359375,1.5429687 0.344023,0.4376369 0.6848015,0.9039013 0.9609374,1.3457031 0.106091,0.169739 0.08544,0.2573391 0.04687,0.3261719 -0.03856,0.068833 -0.124798,0.1473535 -0.3320311,0.1562499 -0.501024,0.02152 -0.9981544,0.01351 -1.4902344,-0.021484 -0.725316,-0.051581 -1.397447,0.1553182 -1.828125,0.6230472 -0.430677,0.467727 -0.4837846,1.26368 -0.025391,1.880859 0.44256,0.595861 0.9953561,1.030045 1.5332031,1.320313 0.532003,0.28711 0.9916334,0.819458 0.9902344,1.271484 l -0.00195,0.736328 c -0.00167,0.539073 0.2162217,1.035259 0.5878907,1.373047 0.371669,0.337788 0.9173521,0.506215 1.4648441,0.375 0.694193,-0.166373 1.341716,-0.38676 1.863281,-0.515625 0.341084,-0.08428 1.115478,-0.114821 1.576172,-0.115234 0.602652,-5e-4 1.30393,-0.0014 1.955078,-0.0059 0.735359,-0.0049 1.387856,-0.325998 1.761719,-0.855469 0.373862,-0.52947 0.40767,-1.303047 -0.03125,-1.925781 -0.33074,-0.469249 -0.720046,-0.935961 -1.121094,-1.380859 -0.305956,-0.339408 -0.313064,-0.536837 -0.3125,-0.560547 v -0.002 l 0.002,-0.002 v -0.002 l 0.002,-0.002 c 0.0075,-0.0091 0.02837,-0.02627 0.08398,-0.05078 0.08899,-0.03923 0.259786,-0.07747 0.501953,-0.08008 l 1.75,-0.01953 c 0.46366,-0.005 0.919084,-0.168756 1.11914,-0.59375 0.200056,-0.424994 0.0041,-0.909532 -0.333984,-1.238281 -0.332785,-0.3235751 -0.683986,-0.6361888 -0.970703,-0.9082036 -0.05155,-0.048907 -0.07249,-0.079359 -0.07813,-0.097656 -2.51e-4,-0.00114 -0.0015,-0.00591 -0.002,-0.00781 v -0.00195 -0.00195 -0.00195 l 0.002,-0.00195 V 9.1875 c 3.66e-4,-0.00102 0.0015,-0.00488 0.002,-0.00586 0.0033,-0.00576 0.0086,-0.011251 0.01172,-0.017578 0.01316,-0.026995 0.06073,-0.095067 0.236328,-0.091797 0.291713,0.00543 0.609474,0.023167 0.933593,0.03125 0.341032,0.00851 0.648961,-0.050749 0.90625,-0.2109375 0.25729,-0.1601887 0.438629,-0.4395855 0.484376,-0.7265625 C 21.45868,7.5920617 21.151816,7.0676118 20.667969,6.6171875 20.524003,6.4831671 20.386023,6.3456589 20.257812,6.2089844 19.948061,5.878782 20.057754,5.5022519 20.134766,5.4492188 20.51752,5.1856387 20.925398,4.8273777 21.240234,4.3886719 21.55507,3.949966 21.792106,3.4037637 21.6875,2.8085938 c -0.0036,-0.02077 -0.0066,-0.037802 -0.0098,-0.054688 10e-7,-6.51e-4 10e-7,-0.0013 0,-0.00195 C 21.564254,2.1477505 21.170403,1.6522802 20.701172,1.2695312 20.231941,0.88678248 19.676839,0.61003715 19.105469,0.54492188 18.89228,0.52062633 18.684501,0.51183879 18.464844,0.51953125 Z m 0.03125,0.99804685 c 0.172017,-0.00591 0.326903,0.0022 0.496094,0.021484 0.305016,0.034761 0.735846,0.2282577 1.076171,0.5058594 0.340326,0.2776016 0.578353,0.6338856 0.626953,0.8925781 0.0029,0.015702 0.0057,0.030651 0.0078,0.042969 0.03945,0.2244805 -0.05295,0.5142631 -0.275391,0.8242187 -0.222438,0.3099556 -0.559629,0.6125511 -0.861328,0.8203125 -0.727003,0.5006438 -0.686481,1.5753311 -0.03711,2.2675781 0.14518,0.1547659 0.297872,0.306914 0.457031,0.4550781 0.332345,0.3093869 0.403058,0.6086179 0.394531,0.6621094 -0.0016,0.01003 -0.0017,0.014951 -0.002,0.017578 v 0.00195 l -0.002,0.00195 c -0.0032,0.00223 -0.0099,0.00523 -0.02344,0.013672 -0.03614,0.022502 -0.146159,0.063719 -0.351563,0.058594 -0.305427,-0.00762 -0.625882,-0.025374 -0.941406,-0.03125 -0.500469,-0.00932 -0.952697,0.2447592 -1.152344,0.6542969 -0.199647,0.4095377 -0.09342,0.9546888 0.273438,1.3027345 0.304048,0.288457 0.651761,0.597836 0.96289,0.900391 0.04051,0.03939 0.06667,0.06872 0.08398,0.08984 0.03105,-0.0093 0.0475,-0.01785 0.05273,-0.01953 h 0.002 v 0.002 c -0.0017,0.0037 -0.0071,0.01158 -0.01172,0.02149 -0.0083,0.01773 -0.0094,0.03121 -0.0098,0.03711 v 0.002 h -0.002 c -0.0032,-0.0046 -0.01142,-0.01877 -0.03125,-0.04297 -0.03624,0.01091 -0.09361,0.02249 -0.181641,0.02344 l -1.75,0.01953 c -0.336998,0.0036 -0.632965,0.05072 -0.894531,0.166016 -0.261566,0.115291 -0.496341,0.317601 -0.609375,0.591796 -0.226069,0.548391 0.04301,1.113045 0.492187,1.611329 0.383946,0.425926 0.751992,0.865962 1.048828,1.287109 0.229955,0.326257 0.190426,0.545239 0.0293,0.773438 -0.161131,0.228195 -0.505396,0.428655 -0.949219,0.43164 -0.647818,0.0044 -1.347583,0.0054 -1.949218,0.0059 -0.481063,4.3e-4 -1.242486,0.0027 -1.816406,0.144531 -0.588446,0.145389 -1.221855,0.361817 -1.855469,0.513672 -0.233417,0.05594 -0.406843,-0.0047 -0.558594,-0.142579 -0.151751,-0.137917 -0.2625407,-0.364906 -0.2617188,-0.630859 l 0.00195,-0.734375 c 0.00315,-1.01442 -0.768492,-1.753038 -1.515625,-2.15625 C 8.0371184,12.696155 7.5960533,12.349337 7.2539062,11.888672 7.0031612,11.551071 7.0576706,11.449823 7.2128906,11.28125 7.3681096,11.112677 7.757824,10.944626 8.234375,10.978516 c 0.52834,0.03757 1.0631756,0.04664 1.6035156,0.02344 0.4944154,-0.02123 0.9370874,-0.269815 1.1601564,-0.667969 C 11.221116,9.9358286 11.193352,9.4152073 10.927734,8.9902344 10.624114,8.5044591 10.265624,8.0138052 9.90625,7.5566406 9.659293,7.2424834 9.6665499,7.0702585 9.6699219,7.046875 l 0.00195,-0.00195 C 9.684368,7.0290932 9.7835825,6.9298616 10.179688,6.9316406 l 0.832031,0.00391 C 11.980363,6.9398933 12.753309,6.0887792 12.65625,5.125 l -0.01953,-0.1933594 c -0.02163,-0.2147249 0.05003,-0.4005126 0.158203,-0.5195312 0.10817,-0.1190186 0.234789,-0.1792951 0.425781,-0.1542969 0.576293,0.075428 0.761853,0.2252606 1.193359,0.2636719 C 14.807713,4.5565259 15.143529,4.418902 15.455078,4.25 15.766627,4.081098 16.042675,3.8745177 16.244141,3.6074219 16.352967,3.4631359 16.439211,3.3088435 16.507812,3.1503906 16.671221,2.7729594 16.88201,2.3754854 17.125,2.0839844 c 0.24299,-0.291501 0.496145,-0.4645255 0.775391,-0.5058594 0.234538,-0.034717 0.423686,-0.05464 0.595703,-0.060547 z M 3.1679688,3 C 1.9769958,3 1,3.9769954 1,5.1679688 V 19.431641 c 0,0.398777 0.2596842,0.737573 0.5820312,0.871093 0.322348,0.133521 0.7453658,0.0769 1.0273438,-0.205078 L 5.0976562,17.609375 C 5.4880822,17.218949 6.0162134,17 6.5683594,17 h 0.828125 c 0.2761424,0 0.5,-0.223858 0.5,-0.5 0,-0.276142 -0.2238576,-0.5 -0.5,-0.5 H 6.5683594 C 5.7513814,16 4.968315,16.324654 4.390625,16.902344 L 2,19.292969 V 5.1679688 C 2,4.5174356 2.5174358,4 3.1679688,4 h 7.3378902 c 0.276142,0 0.5,-0.2238576 0.5,-0.5 0,-0.2761424 -0.223858,-0.5 -0.5,-0.5 z M 18.097656,3.8164062 c -0.109752,9.764e-4 -0.216134,0.038038 -0.302734,0.1054688 -2.438793,1.8935765 -4.875217,5.8282661 -7.140625,10.876953 -0.112509,0.251878 2.36e-4,0.547287 0.251953,0.660156 0.251348,0.112756 0.546549,9.64e-4 0.660156,-0.25 2.233728,-4.978082 4.687974,-8.823779 6.841797,-10.4960934 0.218983,-0.1695793 0.258393,-0.4848599 0.08789,-0.703125 C 18.400625,3.8867999 18.253328,3.8153177 18.097656,3.8164062 Z M 20.5,12.160156 c -0.276142,0 -0.5,0.223858 -0.5,0.5 l -0.0039,2.884766 c -3.64e-4,0.258738 -0.200247,0.459001 -0.458985,0.458984 h -0.535156 c -0.276142,0 -0.5,0.223858 -0.5,0.5 0,0.276142 0.223858,0.5 0.5,0.5 h 0.535156 c 0.798705,5.2e-5 1.457862,-0.658328 1.458985,-1.457031 L 21,12.662109 c 0.0011,-0.276905 -0.223093,-0.501955 -0.5,-0.501953 z m -10.9277344,5.75 c -0.2020872,-7.24e-4 -0.3847406,0.120275 -0.4628906,0.306641 -0.207342,0.493431 -0.5053346,1.000817 -0.6972656,1.621094 -0.081314,0.263726 0.066421,0.543462 0.3300781,0.625 0.263726,0.08131 0.5434626,-0.06642 0.625,-0.330079 0.14808,-0.47856 0.4240445,-0.958103 0.6640625,-1.529296 0.106701,-0.254569 -0.01307,-0.547445 -0.2675781,-0.654297 -0.060613,-0.02548 -0.1256564,-0.03875 -0.1914063,-0.03906 z" /></svg>
